<?xml version="1.0" encoding="iso-8859-1"?>
<!-- Generator: Adobe Illustrator 16.0.0, SVG Export Plug-In . SVG Version: 6.00 Build 0)  -->
<!DOCTYPE svg PUBLIC "-//W3C//DTD SVG 1.1//EN" "http://www.w3.org/Graphics/SVG/1.1/DTD/svg11.dtd">
<svg xmlns="http://www.w3.org/2000/svg" xmlns:xlink="http://www.w3.org/1999/xlink" version="1.1" id="Capa_1" x="0px" y="0px" width="512px" height="512px" viewBox="0 0 791.992 791.991" style="enable-background:new 0 0 791.992 791.991;" xml:space="preserve">
<g>
	<g>
		<g>
			<path d="M292.271,24.75l49.5,99.052H450.31l49.5-99.052H292.271L292.271,24.75z M323.08,141.694L261.54,18.537     c-1.057-1.805-1.65-3.918-1.65-6.162C259.89,5.543,265.433,0,272.265,0h247.5v0.052c1.855,0,3.738,0.412,5.518,1.289     c6.084,3.042,8.56,10.441,5.519,16.525l-61.334,122.719c-1.805,4.641-6.291,7.941-11.551,7.941h-123.75v0.026     C329.577,148.526,325.22,146.025,323.08,141.694L323.08,141.694z M355.59,198.052l-45.426,524.88l85.852,42.979l85.955-42.979     l-45.582-524.88H355.59L355.59,198.052z M284.795,729.094l47.076-543.907c0.232-6.6,5.724-11.911,12.375-11.911h103.486v0.026     c6.342,0,11.756,4.873,12.324,11.292l47.256,544.5h-0.024c0.411,4.873-2.113,9.771-6.755,12.092l-98.717,49.346l-0.258,0.129     l-0.025,0.025c-3.352,1.677-7.424,1.806-11.009,0l-97.969-49.062C287.605,739.664,284.33,734.662,284.795,729.094z" fill="#FFFFFF"/>
			<path d="M341.023,716.538c-6.11-3.042-8.585-10.467-5.543-16.577s10.467-8.585,16.578-5.543l43.983,21.991l43.982-21.991     c6.111-3.042,13.535-0.541,16.578,5.543c3.043,6.11,0.566,13.535-5.543,16.577l-49.5,24.725c-3.352,1.677-7.399,1.806-11.035,0     L341.023,716.538z" fill="#FFFFFF"/>
			<path d="M371.239,99.052c-6.832,0-12.375-5.543-12.375-12.375s5.543-12.375,12.375-12.375h49.5     c6.832,0,12.375,5.543,12.375,12.375s-5.543,12.375-12.375,12.375H371.239z" fill="#FFFFFF"/>
		</g>
	</g>
</g>
<g>
</g>
<g>
</g>
<g>
</g>
<g>
</g>
<g>
</g>
<g>
</g>
<g>
</g>
<g>
</g>
<g>
</g>
<g>
</g>
<g>
</g>
<g>
</g>
<g>
</g>
<g>
</g>
<g>
</g>
</svg>
